<?xml version="1.0" encoding="iso-8859-1"?>
<!-- Generator: Adobe Illustrator 21.0.0, SVG Export Plug-In . SVG Version: 6.00 Build 0)  -->
<svg version="1.1" id="Layer_1" xmlns="http://www.w3.org/2000/svg" xmlns:xlink="http://www.w3.org/1999/xlink" x="0px" y="0px"
	 viewBox="0 0 24 24" enable-background="new 0 0 24 24" xml:space="preserve">
<g>
	<path fill="#303C42" d="M17.6445313,11.1121216C18.4880371,9.9559937,18.9921875,8.5374146,18.9921875,7
		c0-3.8598633-3.140625-7-7-7s-7,3.1401367-7,7c0,1.5441895,0.5087891,2.9684448,1.3590698,4.1273193
		C5.9835815,12.4473267,4,19.6867676,4,22.5c0,0.2021484,0.1220703,0.3847656,0.3085938,0.4619141
		c0.1855469,0.0776367,0.4013672,0.034668,0.5449219-0.1083984c0.9394531-0.9399414,2.3613281-1.5371094,2.9833984-1.7675781
		l2.2792969,2.734375C10.2128906,23.9365234,10.3544922,24,10.5,24c0.0556641,0,0.1123047-0.0092773,0.1669922-0.0288086
		C10.8642578,23.9013672,10.9970703,23.7163086,11,23.5073242c0.0401611-2.7913818,0.3483887-7.2232056,1-8.9993896
		c0.6516113,1.7761841,0.9598389,6.2080078,1,8.9993896c0.0029297,0.2089844,0.1357422,0.394043,0.3330078,0.4638672
		C13.3876953,23.9907227,13.4443359,24,13.5,24c0.1455078,0,0.2871094-0.0634766,0.3837891-0.1796875l2.2792969-2.7348633
		c0.6210938,0.2294922,2.0400391,0.824707,2.9833984,1.7680664c0.1435547,0.1435547,0.3603516,0.1870117,0.5449219,0.1083984
		C19.8779297,22.8847656,20,22.7021484,20,22.5C20,19.6777344,18.0028687,12.3980103,17.6445313,11.1121216z"/>
	<circle fill="#FFCA28" cx="11.9921875" cy="7" r="6"/>
	<path opacity="0.2" fill="#FFFFFF" d="M7.4960938,8.5039063c0-3.3085938,2.6913986-6,6-6
		c1.270813,0,2.4484863,0.3998413,3.4196777,1.076416C15.8308716,2.0230103,14.0299683,1,11.9921875,1c-3.3085938,0-6,2.6914063-6,6
		c0,2.0377808,1.0230103,3.8386841,2.5803223,4.923584C7.8959351,10.9523926,7.4960938,9.7747192,7.4960938,8.5039063z"/>
	<path opacity="0.1" d="M16.0159912,2.5620728C16.9371338,3.6170654,17.5,4.9926147,17.5,6.5c0,3.3085938-2.6914063,6-6,6
		c-1.5490723,0-2.9581909-0.5949707-4.0238037-1.5620728C8.5769043,12.1986084,10.190979,13,11.9921875,13
		c3.3085938,0,6-2.6914063,6-6C17.9921875,5.2404785,17.2263184,3.6605225,16.0159912,2.5620728z"/>
	<path fill="#1E88E5" d="M10.0341797,22.1601563l-1.6503906-1.9804688c-0.1298828-0.1547852-0.3369141-0.215332-0.53125-0.1577148
		c-0.0742188,0.0229492-1.4912109,0.4658203-2.7753906,1.355957c0.3206177-2.7543945,1.5479736-7.4459839,2.0631104-9.343811
		c1.0725708,1.0341187,2.4715576,1.7289429,4.0267334,1.9127808C10.37146,15.8502808,10.1153564,19.9065552,10.0341797,22.1601563z"
		/>
	<path fill="#1E88E5" d="M16.1474609,20.0219727c-0.1953125-0.0576172-0.4023438,0.0029297-0.53125,0.1577148l-1.6503906,1.9804688
		c-0.0811768-2.2545166-0.3374634-6.3131104-1.133728-8.2155151c1.5552368-0.1871948,2.9538574-0.8846436,4.0245972-1.921936
		c0.5133667,1.8904419,1.7449341,6.5952148,2.0661621,9.3557129C17.6386719,20.487793,16.2216797,20.0449219,16.1474609,20.0219727z
		"/>
	<linearGradient id="SVGID_1_" gradientUnits="userSpaceOnUse" x1="10.2042694" y1="10.1753082" x2="20.1651154" y2="20.1361542">
		<stop  offset="0" style="stop-color:#000000;stop-opacity:0.1"/>
		<stop  offset="1" style="stop-color:#000000;stop-opacity:0"/>
	</linearGradient>
	<path fill="url(#SVGID_1_)" d="M16.8566895,12.0227051c-1.0707397,1.0372925-2.4693604,1.7347412-4.0245972,1.921936
		c0.4483032,1.071106,0.7215576,2.8248291,0.8926392,4.5560913l1.7948608,1.7948608l0.0966187-0.1159058
		c0.1289063-0.1547852,0.3359375-0.215332,0.53125-0.1577148c0.0742188,0.0229492,1.4912109,0.4658203,2.7753906,1.3564453
		C18.6016235,18.6179199,17.3700562,13.913147,16.8566895,12.0227051z M10.7182617,15.4942627
		c0.1271362-0.5888062,0.2727661-1.1264038,0.4487305-1.5473633c-1.2571411-0.1486206-2.4021606-0.6433716-3.3652344-1.3690796
		L10.7182617,15.4942627z"/>
	<path fill="#303C42" d="M11.5,4.5009766c0,0,0,0,0.0009766,0l0.4980469-0.0004883V10c0,0.2763672,0.2236328,0.5,0.5,0.5
		s0.5-0.2236328,0.5-0.5V4c0-0.1328125-0.0527344-0.2597656-0.1464844-0.3535156S12.6318359,3.5,12.4990234,3.5c0,0,0,0-0.0009766,0
		l-0.9990234,0.0009766C11.2236328,3.5014648,11,3.7250977,11,4.0014648C11,4.2773438,11.2236328,4.5009766,11.5,4.5009766z"/>
	<linearGradient id="SVGID_2_" gradientUnits="userSpaceOnUse" x1="3.3843334" y1="8.8971987" x2="22.2849369" y2="17.7106953">
		<stop  offset="0" style="stop-color:#FFFFFF;stop-opacity:0.2"/>
		<stop  offset="1" style="stop-color:#FFFFFF;stop-opacity:0"/>
	</linearGradient>
	<path fill="url(#SVGID_2_)" d="M17.6445313,11.1121216C18.4880371,9.9559937,18.9921875,8.5374146,18.9921875,7
		c0-3.8598633-3.140625-7-7-7s-7,3.1401367-7,7c0,1.5441895,0.5087891,2.9684448,1.3590698,4.1273193
		C5.9835815,12.4473267,4,19.6867676,4,22.5c0,0.2021484,0.1220703,0.3847656,0.3085938,0.4619141
		c0.1855469,0.0776367,0.4013672,0.034668,0.5449219-0.1083984c0.9394531-0.9399414,2.3613281-1.5371094,2.9833984-1.7675781
		l2.2792969,2.734375C10.2128906,23.9365234,10.3544922,24,10.5,24c0.0556641,0,0.1123047-0.0092773,0.1669922-0.0288086
		C10.8642578,23.9013672,10.9970703,23.7163086,11,23.5073242c0.0401611-2.7913818,0.3483887-7.2232056,1-8.9993896
		c0.6516113,1.7761841,0.9598389,6.2080078,1,8.9993896c0.0029297,0.2089844,0.1357422,0.394043,0.3330078,0.4638672
		C13.3876953,23.9907227,13.4443359,24,13.5,24c0.1455078,0,0.2871094-0.0634766,0.3837891-0.1796875l2.2792969-2.7348633
		c0.6210938,0.2294922,2.0400391,0.824707,2.9833984,1.7680664c0.1435547,0.1435547,0.3603516,0.1870117,0.5449219,0.1083984
		C19.8779297,22.8847656,20,22.7021484,20,22.5C20,19.6777344,18.0028687,12.3980103,17.6445313,11.1121216z"/>
</g>
<g>
</g>
<g>
</g>
<g>
</g>
<g>
</g>
<g>
</g>
<g>
</g>
<g>
</g>
<g>
</g>
<g>
</g>
<g>
</g>
<g>
</g>
<g>
</g>
<g>
</g>
<g>
</g>
<g>
</g>
</svg>
