<?xml version="1.0" encoding="iso-8859-1"?>
<!-- Generator: Adobe Illustrator 16.0.0, SVG Export Plug-In . SVG Version: 6.00 Build 0)  -->
<!DOCTYPE svg PUBLIC "-//W3C//DTD SVG 1.1//EN" "http://www.w3.org/Graphics/SVG/1.1/DTD/svg11.dtd">
<svg version="1.1" xmlns="http://www.w3.org/2000/svg" xmlns:xlink="http://www.w3.org/1999/xlink" x="0px" y="0px" width="512px"
	 height="512px" viewBox="0 0 512 512" style="enable-background:new 0 0 512 512;" xml:space="preserve">
<g id="_x35_40_x2C__Build_x2C__design_x2C__develop_x2C__sketch_x2C__tools">
	<g>
		<g>
			<path style="fill:#F2F3F3;" d="M322.693,369.305c-11.951-17.743-32.063-29.387-54.631-29.954
				c10.637,0.196,20.348,2.305,29.131,7.181v-67.89h0.227v0.298h92.332v-0.298h0.02h3.086v90.52H322.91L322.693,369.305z"/>
		</g>
		<g>
			<path style="fill:#F2F3F3;" d="M235.476,278.642v67.87c-10.451,5.214-19.276,13.032-25.696,22.66l-0.02-0.011h-69.947v-90.222
				h95.222v-0.298H235.476z"/>
		</g>
		<g>
			<path style="fill:#F2F3F3;" d="M235.476,139.61v67.026h-83.319h-12.344v-89.492h69.947c2.305,3.457,5.041,6.625,8.096,9.505
				c0.01,0.02,0.031,0.03,0.041,0.042C222.988,131.885,228.913,136.267,235.476,139.61z"/>
		</g>
		<g>
			<path style="fill:#F2F3F3;" d="M392.857,117.145v89.492h-3.086h-92.578v-67.252c4.527-2.365,8.775-5.215,12.652-8.507
				c0.031-0.02,0.063-0.041,0.084-0.061c5.061-3.909,9.504-8.466,12.98-13.671H392.857z"/>
		</g>
		<g>
			<polygon style="fill:#F0DFB4;" points="102.781,266.997 55.546,242.68 125.123,206.883 152.156,206.883 152.156,242.916 
				152.156,278.642 139.813,278.642 125.411,278.642 			"/>
		</g>
		<g>
			<polygon style="fill:#707487;" points="409.316,206.636 409.316,278.642 392.857,278.642 389.771,278.642 389.771,206.636 
				392.857,206.636 			"/>
		</g>
		<g>
			<path style="fill:#FF7979;" d="M456.633,212.808v57.604c0,5.144-3.086,8.229-8.229,8.229h-39.088v-72.005h42.174
				C454.576,206.636,456.633,209.722,456.633,212.808z"/>
		</g>
		<g>
			<polygon style="fill:#D7DEED;" points="297.42,242.916 297.42,206.883 389.752,206.883 389.752,278.642 297.42,278.642 			"/>
		</g>
		<g>
			<polygon style="fill:#AFB9D2;" points="235.034,242.916 235.034,278.642 152.156,278.642 152.156,242.916 154.769,242.916 			"/>
		</g>
		<g>
			<polygon style="fill:#D7DEED;" points="235.034,206.883 235.034,242.916 154.769,242.916 152.156,242.916 152.156,206.883 			"/>
		</g>
		<g>
			<path style="fill:#F0DFB4;" d="M266.336,165.491c6.172,0,10.285,5.143,10.285,11.315s-4.113,10.287-10.285,10.287
				s-11.316-4.115-11.316-10.287S260.164,165.491,266.336,165.491z"/>
		</g>
		<g>
			<path style="fill:#F0DFB4;" d="M266.336,301.271c6.172,0,10.285,5.143,10.285,11.314s-4.113,10.287-10.285,10.287
				s-11.316-4.115-11.316-10.287S260.164,301.271,266.336,301.271z"/>
		</g>
		<g>
			<path style="fill:#7E8C8D;" d="M268.063,339.351c22.568,0.567,42.68,12.211,54.631,29.954
				c7.273,10.76,11.531,23.772,11.531,37.916c0,25.717-14.4,47.317-34.973,59.661v-64.804h-65.834v64.804
				c-21.601-12.344-34.974-33.944-34.974-59.661c0-14.205,4.156-27.259,11.335-38.049c6.42-9.628,15.245-17.446,25.696-22.66v0.02
				c0.216-0.123,0.432-0.237,0.648-0.34c8.559-4.165,18.176-6.583,28.431-6.841c0.598-0.01,1.184-0.02,1.781-0.02
				C266.91,339.331,267.488,339.341,268.063,339.351z"/>
		</g>
		<g>
			<path style="fill:#7E8C8D;" d="M299.252,19.424c20.572,11.315,34.973,33.945,34.973,59.661c0,20.553-9.504,39.202-24.295,51.73
				c-0.021,0.02-0.053,0.041-0.084,0.061c-3.908,3.015-8.188,5.638-12.652,7.87c-8.105,4.505-16.992,7.427-26.662,8.085
				c-0.545,0.041-1.09,0.071-1.645,0.092c-0.217,0.01-0.434,0.021-0.648,0.021c-0.627,0.021-1.266,0.031-1.902,0.031
				c-0.67,0-1.328-0.01-1.986-0.031c-0.123,0-0.246-0.01-0.359-0.01c-10.4-0.401-19.904-3.404-28.515-8.188
				c-6.429-3.209-12.457-7.231-17.579-12.055c-0.01-0.011-0.031-0.021-0.041-0.042c-12.056-12.323-19.411-29.183-19.411-47.564
				c0-25.716,13.373-48.346,34.974-59.661V83.2h65.834V19.424z"/>
		</g>
		<g>
			<path style="fill:#95A5A5;" d="M264.35,146.944c0.658,0.021,1.316,0.031,1.986,0.031c0.637,0,1.275-0.01,1.902-0.031
				c0.215,0,0.432-0.01,0.648-0.021c0.555-0.021,1.1-0.051,1.645-0.092c9.516-0.586,18.547-3.219,26.662-7.448v67.252v72.005v67.89
				c-8.783-4.876-18.494-6.984-29.131-7.181c-0.574-0.01-1.152-0.02-1.727-0.02c-0.598,0-1.184,0.01-1.781,0.02
				c-10.357,0.196-19.831,2.202-28.431,6.841c-0.217,0.103-0.433,0.206-0.648,0.32v-67.87v-72.005V139.61
				c8.559,4.372,18.217,6.985,28.515,7.324C264.104,146.934,264.227,146.944,264.35,146.944z M276.621,176.806
				c0-6.172-4.113-11.315-10.285-11.315s-11.316,5.143-11.316,11.315s5.145,10.287,11.316,10.287S276.621,182.978,276.621,176.806z
				 M276.621,312.586c0-6.172-4.113-11.314-10.285-11.314s-11.316,5.143-11.316,11.314s5.145,10.287,11.316,10.287
				S276.621,318.758,276.621,312.586z"/>
		</g>
		<g>
			<path style="fill:#000729;" d="M235.034,246.002h-80.266c-1.705,0-3.086-1.381-3.086-3.086s1.381-3.086,3.086-3.086h80.266
				c1.704,0,3.085,1.381,3.085,3.086S236.738,246.002,235.034,246.002z"/>
		</g>
		<g>
			<path style="fill:#000729;" d="M363.922,246.002H297.42c-1.705,0-3.086-1.381-3.086-3.086s1.381-3.086,3.086-3.086h66.502
				c1.705,0,3.086,1.381,3.086,3.086S365.627,246.002,363.922,246.002z"/>
		</g>
		<g>
			<path style="fill:#000729;" d="M389.752,282.025H297.42c-1.705,0-3.086-1.381-3.086-3.086v-72.056
				c0-1.705,1.381-3.086,3.086-3.086h92.332c1.705,0,3.086,1.381,3.086,3.086v72.056
				C392.838,280.645,391.457,282.025,389.752,282.025z M300.506,275.854h86.16v-65.884h-86.16V275.854z"/>
		</g>
		<g>
			<path style="fill:#000729;" d="M235.034,282.025H125.123c-0.491,0-0.976-0.117-1.411-0.342l-70.03-36.023
				c-1.025-0.527-1.672-1.583-1.675-2.736c-0.003-1.153,0.637-2.212,1.66-2.744l0.453-0.236l69.592-35.804
				c0.436-0.224,0.92-0.342,1.411-0.342h109.911c1.704,0,3.085,1.381,3.085,3.086v72.056
				C238.119,280.645,236.738,282.025,235.034,282.025z M125.87,275.854h106.078v-65.884H125.87l-64.034,32.945L125.87,275.854z"/>
		</g>
		<g>
			<path style="fill:#000729;" d="M409.316,209.722h-16.459c-1.705,0-3.086-1.381-3.086-3.086s1.381-3.086,3.086-3.086h16.459
				c1.705,0,3.086,1.381,3.086,3.086S411.021,209.722,409.316,209.722z"/>
		</g>
		<g>
			<path style="fill:#000729;" d="M389.771,281.728c-1.705,0-3.086-1.382-3.086-3.086v-72.005c0-1.705,1.381-3.086,3.086-3.086
				s3.086,1.381,3.086,3.086v72.005C392.857,280.346,391.477,281.728,389.771,281.728z"/>
		</g>
		<g>
			<path style="fill:#000729;" d="M409.316,281.728h-16.459c-1.705,0-3.086-1.382-3.086-3.086c0-1.705,1.381-3.086,3.086-3.086
				h16.459c1.705,0,3.086,1.381,3.086,3.086C412.402,280.346,411.021,281.728,409.316,281.728z"/>
		</g>
		<g>
			<path style="fill:#000729;" d="M448.404,281.728h-39.088c-1.705,0-3.086-1.382-3.086-3.086v-72.005
				c0-1.705,1.381-3.086,3.086-3.086h42.174c4.537,0,8.229,4.153,8.229,9.258v57.604
				C459.719,277.286,455.279,281.728,448.404,281.728z M412.402,275.556h36.002c3.461,0,5.143-1.683,5.143-5.144v-57.604
				c0-1.457-0.879-3.086-2.057-3.086h-39.088V275.556z"/>
		</g>
		<g>
			<path style="fill:#000729;" d="M139.813,281.728h-14.401c-0.491,0-0.976-0.118-1.412-0.342l-69.865-35.962
				c-1.027-0.528-1.715-1.608-1.715-2.765c0-1.155,0.604-2.235,1.633-2.763l69.947-36.002c0.437-0.225,0.921-0.343,1.412-0.343
				h14.401c1.704,0,3.086,1.381,3.086,3.086s-1.382,3.086-3.086,3.086h-13.654l-63.951,32.917l63.951,32.917h13.654
				c1.704,0,3.086,1.381,3.086,3.086C142.898,280.346,141.517,281.728,139.813,281.728z"/>
		</g>
		<g>
			<path style="fill:#000729;" d="M152.156,281.728c-1.705,0-3.086-1.382-3.086-3.086v-72.005c0-1.705,1.381-3.086,3.086-3.086
				c1.704,0,3.086,1.381,3.086,3.086v72.005C155.242,280.346,153.86,281.728,152.156,281.728z"/>
		</g>
		<g>
			<path style="fill:#000729;" d="M263.992,150.02c-0.035,0-0.07-0.001-0.104-0.002c-10.514-0.347-20.545-2.923-29.816-7.66
				c-6.81-3.47-12.994-8.014-18.38-13.508c-1.192-1.217-1.173-3.17,0.044-4.364c1.216-1.192,3.171-1.173,4.364,0.044
				c4.916,5.015,10.561,9.164,16.775,12.33c8.461,4.322,17.616,6.673,27.216,6.99c1.703,0.056,3.037,1.483,2.982,3.186
				C267.02,148.704,265.648,150.02,263.992,150.02z"/>
		</g>
		<g>
			<path style="fill:#000729;" d="M266.336,150.061c-0.703,0-1.395-0.011-2.084-0.033c-1.703-0.054-3.041-1.479-2.986-3.182
				c0.055-1.67,1.424-2.987,3.082-2.987c0.035,0,0.068,0.001,0.102,0.002c0.625,0.02,1.25,0.029,1.887,0.029
				c1.703,0,3.086,1.381,3.086,3.086S268.039,150.061,266.336,150.061z"/>
		</g>
		<g>
			<path style="fill:#000729;" d="M268.238,150.03c-1.705,0-3.086-1.381-3.086-3.085c0-1.705,1.381-3.086,3.086-3.086
				c0.168,0,0.334-0.009,0.502-0.017c0.545-0.021,1.053-0.048,1.561-0.086c8.914-0.551,17.469-2.94,25.469-7.107
				c4.334-2.266,8.4-5,12.08-8.124c1.299-1.103,3.248-0.943,4.35,0.355c1.104,1.299,0.943,3.247-0.355,4.35
				c-4.027,3.419-8.477,6.41-13.221,8.89c-8.773,4.571-18.16,7.191-27.9,7.792c-0.543,0.041-1.125,0.073-1.719,0.096
				C268.764,150.019,268.5,150.03,268.238,150.03z"/>
		</g>
		<g>
			<path style="fill:#000729;" d="M309.932,133.901c-0.877,0-1.748-0.371-2.357-1.092c-1.102-1.3-0.939-3.248,0.361-4.349
				c14.746-12.492,23.203-30.488,23.203-49.376c0-21.993-10.912-42.293-28.801-54.187V83.2c0,1.705-1.381,3.086-3.086,3.086h-65.834
				c-1.704,0-3.086-1.381-3.086-3.086V24.78c-17.89,11.449-28.802,31.793-28.802,54.305c0,17.065,6.581,33.191,18.531,45.407
				c1.191,1.219,1.17,3.172-0.049,4.364c-1.216,1.191-3.171,1.17-4.363-0.048c-13.085-13.375-20.291-31.034-20.291-49.722
				c0-26.652,14.035-50.56,36.629-62.395c0.955-0.502,2.106-0.466,3.028,0.094c0.924,0.558,1.488,1.56,1.488,2.64v60.69h59.662
				v-60.69c0-1.091,0.576-2.102,1.514-2.656c0.941-0.556,2.104-0.575,3.059-0.048c22.559,12.408,36.572,36.305,36.572,62.365
				c0,20.707-9.254,40.419-25.389,54.085C311.344,133.661,310.635,133.901,309.932,133.901z"/>
		</g>
		<g>
			<path style="fill:#000729;" d="M266.336,150.061c-0.703,0-1.395-0.011-2.084-0.033c-0.014,0.007-0.113-0.001-0.217-0.006
				c-0.041,0-0.125-0.003-0.164-0.004c-10.313-0.398-20.369-3.283-29.895-8.575c-1.489-0.828-2.025-2.706-1.198-4.196
				c0.827-1.489,2.704-2.027,4.196-1.199c8.657,4.81,17.771,7.434,27.09,7.8c0.074,0.001,0.148,0.003,0.225,0.006
				c0.033,0,0.127,0.004,0.16,0.005c1.219,0.039,2.467,0.041,3.686,0c0.201-0.005,0.402-0.009,0.605-0.019
				c0.545-0.021,1.053-0.048,1.561-0.086c8.729-0.596,17.266-3.188,25.395-7.706c1.488-0.829,3.369-0.292,4.195,1.199
				c0.828,1.488,0.293,3.368-1.197,4.196c-8.928,4.962-18.332,7.811-27.951,8.467c-0.563,0.042-1.145,0.074-1.738,0.097
				c-0.225,0.01-0.467,0.02-0.709,0.022C267.648,150.051,266.992,150.061,266.336,150.061z"/>
		</g>
		<g>
			<path style="fill:#000729;" d="M235.476,349.617c-0.534,0-1.069-0.139-1.548-0.417c-0.952-0.552-1.538-1.569-1.538-2.669V206.636
				c0-1.705,1.381-3.086,3.086-3.086s3.086,1.381,3.086,3.086v134.926c7.622-3.374,16.152-5.111,25.935-5.297
				c0.021-0.001,0.039-0.001,0.061-0.001c1.678,0,3.053,1.344,3.084,3.028c0.033,1.703-1.324,3.11-3.027,3.143
				c-10.479,0.199-19.319,2.315-27.025,6.473c-0.046,0.025-0.093,0.049-0.142,0.071c-0.146,0.07-0.292,0.146-0.438,0.229
				C236.533,349.481,236.004,349.617,235.476,349.617z"/>
		</g>
		<g>
			<path style="fill:#000729;" d="M297.193,349.617c-0.514,0-1.031-0.129-1.496-0.388c-7.879-4.373-16.938-6.595-27.691-6.794
				c-1.703-0.031-3.061-1.438-3.027-3.142c0.029-1.685,1.406-3.029,3.084-3.029c0.018,0,0.037,0,0.059,0.001
				c9.785,0.181,18.338,1.917,25.986,5.29V206.636c0-1.705,1.383-3.086,3.086-3.086c1.705,0,3.086,1.381,3.086,3.086v139.895
				c0,1.093-0.578,2.104-1.52,2.659C298.277,349.475,297.736,349.617,297.193,349.617z"/>
		</g>
		<g>
			<path style="fill:#000729;" d="M233.418,469.968c-0.528,0-1.057-0.135-1.53-0.406c-23.215-13.265-36.529-35.987-36.529-62.341
				c0-14.356,4.099-28.105,11.852-39.759c6.731-10.095,16.028-18.294,26.888-23.712c0.195-0.104,0.45-0.227,0.703-0.347
				c9.181-4.468,19.174-6.874,29.678-7.138c1.305-0.021,2.439-0.021,3.639-0.001c22.965,0.577,44.316,12.284,57.137,31.316
				c7.887,11.669,12.057,25.377,12.057,39.64c0,25.313-13.633,48.604-36.471,62.308c-0.953,0.573-2.143,0.587-3.109,0.039
				s-1.564-1.573-1.564-2.686v-61.718h-59.662v61.718c0,1.101-0.585,2.117-1.536,2.669
				C234.488,469.829,233.954,469.968,233.418,469.968z M266.336,342.417c-0.57,0-1.131,0.01-1.699,0.019
				c-9.618,0.241-18.755,2.438-27.163,6.531c-0.206,0.098-0.384,0.183-0.563,0.275c-9.957,4.969-18.43,12.442-24.563,21.641
				c-7.076,10.636-10.817,23.202-10.817,36.338c0,22.273,10.426,41.718,28.802,54.113v-59.256c0-1.705,1.382-3.086,3.086-3.086
				h65.834c1.705,0,3.086,1.381,3.086,3.086v59.112c18.135-12.813,28.801-32.619,28.801-53.97c0-13.026-3.803-25.54-11-36.188
				c-11.711-17.383-31.205-28.071-52.152-28.598C267.451,342.427,266.893,342.417,266.336,342.417z"/>
		</g>
		<g>
			<path style="fill:#000729;" d="M266.336,190.178c-8.211,0-14.402-5.749-14.402-13.373c0-7.941,6.461-14.401,14.402-14.401
				c7.623,0,13.371,6.191,13.371,14.401C279.707,184.679,274.209,190.178,266.336,190.178z M266.336,168.577
				c-4.463,0-8.23,3.768-8.23,8.229c0,4.728,4.141,7.201,8.23,7.201c4.439,0,7.199-2.76,7.199-7.201
				C273.535,172.716,271.063,168.577,266.336,168.577z"/>
		</g>
		<g>
			<path style="fill:#000729;" d="M266.336,325.959c-8.211,0-14.402-5.749-14.402-13.373c0-7.94,6.461-14.4,14.402-14.4
				c7.623,0,13.371,6.19,13.371,14.4C279.707,320.46,274.209,325.959,266.336,325.959z M266.336,304.357
				c-4.463,0-8.23,3.768-8.23,8.229c0,4.728,4.141,7.201,8.23,7.201c4.439,0,7.199-2.76,7.199-7.201
				C273.535,308.497,271.063,304.357,266.336,304.357z"/>
		</g>
		<g>
			<path style="fill:#000729;" d="M356.855,482.312H143.927c-1.705,0-3.086-1.381-3.086-3.086c0-1.704,1.381-3.086,3.086-3.086
				h212.929c1.705,0,3.086,1.382,3.086,3.086C359.941,480.931,358.561,482.312,356.855,482.312z"/>
		</g>
		<g>
			<path style="fill:#000729;" d="M416.516,495.685H268.393c-1.705,0-3.086-1.382-3.086-3.086c0-1.705,1.381-3.086,3.086-3.086
				h148.123c1.705,0,3.086,1.381,3.086,3.086C419.602,494.303,418.221,495.685,416.516,495.685z"/>
		</g>
		<g>
			<path style="fill:#000729;" d="M449.434,495.685h-17.488c-1.703,0-3.086-1.382-3.086-3.086c0-1.705,1.383-3.086,3.086-3.086
				h17.488c1.703,0,3.086,1.381,3.086,3.086C452.52,494.303,451.137,495.685,449.434,495.685z"/>
		</g>
		<g>
			<path style="fill:#000729;" d="M205.646,495.685h-69.948c-1.704,0-3.086-1.382-3.086-3.086c0-1.705,1.382-3.086,3.086-3.086
				h69.948c1.704,0,3.086,1.381,3.086,3.086C208.731,494.303,207.35,495.685,205.646,495.685z"/>
		</g>
		<g>
			<path style="fill:#000729;" d="M209.76,372.247h-69.947c-1.705,0-3.086-1.381-3.086-3.086v-90.52
				c0-1.705,1.381-3.086,3.086-3.086h95.663c1.705,0,3.086,1.381,3.086,3.086c0,1.704-1.381,3.086-3.086,3.086h-92.577v84.348
				h66.861c1.705,0,3.086,1.382,3.086,3.086C212.846,370.866,211.465,372.247,209.76,372.247z"/>
		</g>
		<g>
			<path style="fill:#000729;" d="M392.857,372.247H322.91c-1.705,0-3.086-1.381-3.086-3.086c0-1.704,1.381-3.086,3.086-3.086
				h66.861v-84.348h-92.578c-1.703,0-3.086-1.382-3.086-3.086c0-1.705,1.383-3.086,3.086-3.086h95.664
				c1.705,0,3.086,1.381,3.086,3.086v90.52C395.943,370.866,394.563,372.247,392.857,372.247z"/>
		</g>
		<g>
			<path style="fill:#000729;" d="M392.857,209.722h-95.664c-1.703,0-3.086-1.381-3.086-3.086v-67.89c0-1.169,0.66-2.237,1.707-2.76
				c4.441-2.221,8.529-4.762,12.146-7.553c0.027-0.021,0.057-0.042,0.086-0.063c5.01-3.869,9.146-8.223,12.299-12.939
				c0.572-0.858,1.533-1.373,2.564-1.373h69.947c1.705,0,3.086,1.381,3.086,3.086v89.492
				C395.943,208.341,394.563,209.722,392.857,209.722z M300.279,203.55h89.492v-83.32h-65.242
				c-3.387,4.745-7.656,9.121-12.715,13.027v-0.001c-0.035,0.027-0.07,0.054-0.105,0.081c-3.455,2.664-7.293,5.112-11.43,7.292
				V203.55z"/>
		</g>
		<g>
			<path style="fill:#000729;" d="M235.476,209.722h-95.663c-1.705,0-3.086-1.381-3.086-3.086v-89.492
				c0-1.705,1.381-3.086,3.086-3.086h69.947c1.031,0,1.995,0.516,2.567,1.375c2.101,3.151,4.673,6.168,7.645,8.971
				c0.025,0.023,0.049,0.046,0.073,0.07c4.691,4.412,10.347,8.285,16.809,11.51c1.047,0.522,1.708,1.592,1.708,2.761v67.89
				C238.562,208.341,237.181,209.722,235.476,209.722z M142.898,203.55h89.491v-62.918c-6.301-3.318-11.87-7.238-16.581-11.668
				c-0.043-0.039-0.086-0.08-0.127-0.123c-2.857-2.7-5.389-5.591-7.542-8.611h-65.241V203.55z"/>
		</g>
		<g>
			<path style="fill:#000729;" d="M102.781,270.412c-1.705,0-3.086-1.382-3.086-3.086v-36.002c0-1.705,1.381-3.086,3.086-3.086
				s3.086,1.381,3.086,3.086v36.002C105.867,269.03,104.486,270.412,102.781,270.412z"/>
		</g>
	</g>
</g>
<g id="Layer_1">
</g>
</svg>
