<?xml version="1.0" encoding="iso-8859-1"?>
<!-- Generator: Adobe Illustrator 19.0.0, SVG Export Plug-In . SVG Version: 6.00 Build 0)  -->
<svg version="1.1" id="Layer_1" xmlns="http://www.w3.org/2000/svg" xmlns:xlink="http://www.w3.org/1999/xlink" x="0px" y="0px"
	 viewBox="0 0 512 512" style="enable-background:new 0 0 512 512;" xml:space="preserve">
<polygon style="fill:#CFF09E;" points="370.287,221.92 290.08,221.92 290.08,141.712 221.92,141.712 221.92,221.92 141.713,221.92 
	141.713,290.079 221.92,290.079 221.92,370.287 290.08,370.287 290.08,290.079 370.287,290.079 "/>
<g>
	<path style="fill:#507C5C;" d="M290.08,384.789H221.92c-8.009,0-14.502-6.493-14.502-14.502v-65.706h-65.706
		c-8.009,0-14.502-6.493-14.502-14.502V221.92c0-8.009,6.493-14.502,14.502-14.502h65.706v-65.706
		c0-8.009,6.493-14.502,14.502-14.502h68.159c8.008,0,14.502,6.493,14.502,14.502v65.706h65.706c8.008,0,14.502,6.493,14.502,14.502
		v68.159c0,8.009-6.494,14.502-14.502,14.502h-65.706v65.706C304.582,378.296,298.089,384.789,290.08,384.789z M236.422,355.785
		h39.155v-65.706c0-8.009,6.494-14.502,14.502-14.502h65.706v-39.155H290.08c-8.008,0-14.502-6.493-14.502-14.502v-65.706h-39.155
		v65.706c0,8.009-6.493,14.502-14.502,14.502h-65.706v39.155h65.706c8.009,0,14.502,6.493,14.502,14.502V355.785z"/>
	<path style="fill:#507C5C;" d="M497.497,512H14.503c-8.009,0-14.502-6.493-14.502-14.502V14.502C0.001,6.493,6.493,0,14.503,0
		h482.995c8.008,0,14.502,6.493,14.502,14.502v385.151c0,8.009-6.494,14.502-14.502,14.502s-14.502-6.493-14.502-14.502V29.004
		H29.005v453.992h468.493c8.008,0,14.502,6.493,14.502,14.502S505.507,512,497.497,512z"/>
	<path style="fill:#507C5C;" d="M427.065,441.568H84.935c-8.009,0-14.502-6.493-14.502-14.502V154.242
		c0-8.009,6.493-14.502,14.502-14.502c8.009,0,14.502,6.493,14.502,14.502v258.323h313.127V99.436H84.935
		c-8.009,0-14.502-6.493-14.502-14.502s6.493-14.502,14.502-14.502h342.131c8.008,0,14.502,6.493,14.502,14.502v342.132
		C441.567,435.076,435.075,441.568,427.065,441.568z"/>
</g>
<g>
</g>
<g>
</g>
<g>
</g>
<g>
</g>
<g>
</g>
<g>
</g>
<g>
</g>
<g>
</g>
<g>
</g>
<g>
</g>
<g>
</g>
<g>
</g>
<g>
</g>
<g>
</g>
<g>
</g>
</svg>
